<svg version="1.1" xmlns="http://www.w3.org/2000/svg" viewBox="0 0 163.33331298828125 145.33334350585938" width="163.33331298828125" height="145.33334350585938">
  <!-- svg-source:excalidraw -->
  
  <defs>
    <style>
      @font-face {
        font-family: "Virgil";
        src: url("https://excalidraw.com/Virgil.ttf");
      }
      @font-face {
        font-family: "Cascadia";
        src: url("https://excalidraw.com/Cascadia.ttf");
      }
    </style>
  </defs>
  <rect x="0" y="0" width="163.33331298828125" height="145.33334350585938" fill="#ffffff"></rect><g stroke-linecap="round" transform="translate(10 10) rotate(0 71.66665649414062 62.66667175292969)"><path d="M59.19 0.31 C68.69 -1.96, 81.48 0.3, 91.5 2.74 C101.52 5.18, 111.59 8.9, 119.31 14.92 C127.03 20.94, 133.83 30.53, 137.82 38.85 C141.81 47.18, 143.83 55.89, 143.26 64.86 C142.7 73.83, 139.36 84.71, 134.43 92.69 C129.5 100.67, 122.18 107.3, 113.69 112.74 C105.2 118.18, 93.73 123.51, 83.51 125.34 C73.3 127.16, 62.23 126.16, 52.41 123.72 C42.6 121.27, 32.42 116.84, 24.63 110.66 C16.85 104.48, 9.78 95.16, 5.7 86.62 C1.62 78.08, -0.49 68.26, 0.15 59.4 C0.8 50.53, 4.73 41.51, 9.58 33.44 C14.43 25.36, 20.69 16.39, 29.25 10.94 C37.81 5.49, 55.51 2.16, 60.93 0.74 C66.36 -0.67, 61.69 1.3, 61.81 2.44 M41.04 7 C49.63 2.57, 62.97 1.6, 73.09 1.25 C83.2 0.9, 92.64 1.37, 101.76 4.89 C110.87 8.41, 121.33 15.21, 127.77 22.36 C134.21 29.5, 137.91 38.85, 140.41 47.77 C142.91 56.68, 144.75 66.96, 142.79 75.84 C140.83 84.73, 135.17 93.71, 128.65 101.09 C122.13 108.48, 113.41 116.17, 103.66 120.15 C93.91 124.13, 80.52 125.04, 70.13 124.96 C59.75 124.88, 50.27 123.65, 41.33 119.67 C32.4 115.7, 23.25 108.11, 16.54 101.13 C9.83 94.15, 3.39 86.43, 1.09 77.79 C-1.22 69.15, 0.18 58.15, 2.71 49.3 C5.23 40.45, 9.71 32.16, 16.25 24.71 C22.79 17.25, 37.86 7.62, 41.96 4.58 C46.06 1.55, 40.45 5.44, 40.84 6.48" stroke="#000000" stroke-width="1" fill="none"></path></g></svg>